PathFileType	4	(X/Y/Z)	C:\Users\86182\Documents\cortex\Trimmed_M1_L11.trc
DataRate	CameraRate	NumFrames	NumMarkers	Units	OrigDataRate	OrigDataStartFrame	OrigNumFrames
100.00	100.00	       112	2	mm	100.00	541	       901
Frame#	Time	gripper			box			
		X1	Y1	Z1	X2	Y2	Z2	

541	5.400	199.47708	195.94193	292.89581	201.18370	194.84615	156.40372	
542	5.410	199.47366	195.92252	292.90735	201.18370	194.84615	156.40372	
543	5.420	199.49669	195.94893	292.90164	201.18370	194.84615	156.40372	
544	5.430	199.50066	195.94800	292.89026	201.18370	194.84615	156.40372	
545	5.440	199.52660	195.95618	292.89069	201.18370	194.84615	156.40372	
546	5.450	199.48553	195.94366	292.88303	201.18370	194.84615	156.40372	
547	5.460	199.49193	195.96338	292.87872	201.18370	194.84615	156.40372	
548	5.470	199.46158	195.93387	292.88776	201.18370	194.84615	156.40372	
549	5.480	199.53340	195.97314	292.87982	201.18370	194.84615	156.40372	
550	5.490	199.52423	195.95953	292.89474	201.18370	194.84615	156.40372	
551	5.500	199.48849	195.95341	292.89575	201.18370	194.84615	156.40372	
552	5.510	199.45152	195.93338	292.91129	201.18370	194.84615	156.40372	
553	5.520	199.41502	195.94032	292.88608	201.18370	194.84615	156.40372	
554	5.530	199.45619	195.93703	292.90671	201.18370	194.84615	156.40372	
555	5.540	199.47714	195.94991	292.88638	201.18370	194.84615	156.40372	
556	5.550	199.43642	195.93462	292.87991	201.18370	194.84615	156.40372	
557	5.560	199.47147	195.93152	292.90823	201.18370	194.84615	156.40372	
558	5.570	199.44516	195.92459	292.90350	201.18370	194.84615	156.40372	
559	5.580	199.51106	195.94522	292.89059	201.18370	194.84615	156.40372	
560	5.590	199.50195	195.97311	292.87576	201.18370	194.84615	156.40372	
561	5.600	199.48524	195.95395	292.88715	201.18370	194.84615	156.40372	
562	5.610	199.48314	195.96152	292.89221	201.18370	194.84615	156.40372	
563	5.620	199.52428	195.96159	292.89529	201.18370	194.84615	156.40372	
564	5.630	199.49557	195.95024	292.89081	201.18370	194.84615	156.40372	
565	5.640	199.48050	195.94980	292.89340	201.18370	194.84615	156.40372	
566	5.650	199.49763	195.95438	292.88486	201.18370	194.84615	156.40372	
567	5.660	199.51367	195.96954	292.88544	201.18370	194.84615	156.40372	
568	5.670	199.46870	195.95226	292.87988	201.18370	194.84615	156.40372	
569	5.680	199.48470	195.95564	292.88196	201.18370	194.84615	156.40372	
570	5.690	199.47438	195.95042	292.86993	201.18370	194.84615	156.40372	
571	5.700	199.43913	195.93239	292.89423	201.18370	194.84615	156.40372	
572	5.710	199.38759	195.92339	292.88342	201.18370	194.84615	156.40372	
573	5.720	199.44141	195.91637	292.87909	201.18370	194.84615	156.40372	
574	5.730	199.44431	195.92554	292.89355	201.18370	194.84615	156.40372	
575	5.740	199.37772	195.90401	292.87274	201.18370	194.84615	156.40372	
576	5.750	199.49693	195.96825	292.87726	201.18370	194.84615	156.40372	
577	5.760	199.43521	195.93120	292.88403	201.18370	194.84615	156.40372	
578	5.770	199.47397	195.93987	292.88235	201.18370	194.84615	156.40372	
579	5.780	199.46561	195.95152	292.87540	201.18370	194.84615	156.40372	
580	5.790	199.43736	195.91623	292.87231	201.18370	194.84615	156.40372	
581	5.800	199.46848	195.96123	292.87305	201.18370	194.84615	156.40372	
582	5.810	199.42506	195.93416	292.88290	201.18370	194.84615	156.40372	
583	5.820	199.45100	195.94159	292.88467	201.18370	194.84615	156.40372	
584	5.830	199.43127	195.91605	292.87360	201.18370	194.84615	156.40372	
585	5.840	199.41548	195.92767	292.88956	201.18370	194.84615	156.40372	
586	5.850	199.44243	195.94461	292.87766	201.18370	194.84615	156.40372	
587	5.860	199.41336	195.93488	292.88110	201.18370	194.84615	156.40372	
588	5.870	199.50050	195.95811	292.88727	201.18370	194.84615	156.40372	
589	5.880	199.43735	195.93033	292.90070	201.18370	194.84615	156.40372	
590	5.890	199.37791	195.91064	292.86630	201.18370	194.84615	156.40372	
591	5.900	199.46507	195.93887	292.87210	201.18370	194.84615	156.40372	
592	5.910	199.46986	195.93619	292.87921	201.18370	194.84615	156.40372	
593	5.920	199.44135	195.93022	292.87885	201.18370	194.84615	156.40372	
594	5.930	199.45082	195.95122	292.87729	201.18370	194.84615	156.40372	
595	5.940	199.43829	195.95702	292.88181	201.18370	194.84615	156.40372	
596	5.950	199.41229	195.93745	292.87326	201.18370	194.84615	156.40372	
597	5.960	199.46187	195.95253	292.86569	201.18370	194.84615	156.40372	
598	5.970	199.42436	195.93114	292.89932	201.18370	194.84615	156.40372	
599	5.980	199.46269	195.92535	292.89966	201.18370	194.84615	156.40372	
600	5.990	199.41368	195.92795	292.88852	201.18370	194.84615	156.40372	
601	6.000	199.43547	195.93846	292.90405	201.18370	194.84615	156.40372	
602	6.010	199.44749	195.94020	292.89764	201.18370	194.84615	156.40372	
603	6.020	199.47005	195.94591	292.89233	201.18370	194.84615	156.40372	
604	6.030	199.46725	195.93202	292.89297	201.18370	194.84615	156.40372	
605	6.040	199.44656	195.95212	292.86826	201.18370	194.84615	156.40372	
606	6.050	199.44435	195.95818	292.88428	201.18370	194.84615	156.40372	
607	6.060	199.45697	195.93797	292.87463	201.18370	194.84615	156.40372	
608	6.070	199.49515	195.93811	292.88586	201.18370	194.84615	156.40372	
609	6.080	199.52217	195.96718	292.87143	201.18370	194.84615	156.40372	
610	6.090	199.49124	195.96092	292.87244	201.18370	194.84615	156.40372	
611	6.100	199.47841	195.95578	292.89630	201.18370	194.84615	156.40372	
612	6.110	199.44295	195.94374	292.90128	201.18370	194.84615	156.40372	
613	6.120	199.45485	195.94339	292.89432	201.18300	194.84784	156.39903	
614	6.130	199.40807	195.94351	292.89096	201.18370	194.84615	156.40372	
615	6.140	199.43394	195.93539	292.88501	201.18370	194.84615	156.40372	
616	6.150	199.40501	195.93979	292.88855	201.18370	194.84615	156.40372	
617	6.160	199.46024	195.94745	292.87430	201.18370	194.84615	156.40372	
618	6.170	199.41837	195.94092	292.88342	201.18370	194.84615	156.40372	
619	6.180	199.42404	195.91309	292.88339	201.18370	194.84615	156.40372	
620	6.190	199.44911	195.95959	292.88715	201.18370	194.84615	156.40372	
621	6.200	199.50415	195.97482	292.87021	201.18370	194.84615	156.40372	
622	6.210	199.49883	195.97952	292.87033	201.18370	194.84615	156.40372	
623	6.220	199.49222	195.97169	292.88095	201.18370	194.84615	156.40372	
624	6.230	199.44237	195.95895	292.87567	201.18370	194.84615	156.40372	
625	6.240	199.49129	195.97220	292.87259	201.18370	194.84615	156.40372	
626	6.250	199.48051	195.96320	292.85846	201.18370	194.84615	156.40372	
627	6.260	199.47112	195.95981	292.87762	201.18370	194.84615	156.40372	
628	6.270	199.45332	195.93051	292.87726	201.18370	194.84615	156.40372	
629	6.280	199.45264	195.94016	292.86133	201.18370	194.84615	156.40372	
630	6.290	199.44492	195.97063	292.87445	201.18370	194.84615	156.40372	
631	6.300	199.46857	195.95732	292.87839	201.18370	194.84615	156.40372	
632	6.310	199.40108	195.92715	292.89944	201.18370	194.84615	156.40372	
633	6.320	199.44804	195.94241	292.89746	201.18370	194.84615	156.40372	
634	6.330	199.41826	195.92488	292.88321	201.18370	194.84615	156.40372	
635	6.340	199.45045	195.94603	292.87952	201.18370	194.84615	156.40372	
636	6.350	199.44194	195.95770	292.87250	201.18370	194.84615	156.40372	
637	6.360	199.43779	195.94814	292.88129	201.18370	194.84615	156.40372	
638	6.370	199.44090	195.94125	292.87320	201.18370	194.84615	156.40372	
639	6.380	199.42970	195.94559	292.86044	201.18370	194.84615	156.40372	
640	6.390	199.48232	195.97128	292.86234	201.18370	194.84615	156.40372	
641	6.400	199.45671	195.95477	292.86624	201.18370	194.84615	156.40372	
642	6.410	199.47661	195.96405	292.87003	201.18370	194.84615	156.40372	
643	6.420	199.47791	195.94615	292.86984	201.18370	194.84615	156.40372	
644	6.430	199.46100	195.94997	292.88065	201.18370	194.84615	156.40372	
645	6.440	199.45290	195.94638	292.87820	201.18370	194.84615	156.40372	
646	6.450	199.46716	195.93710	292.89148	201.18370	194.84615	156.40372	
647	6.460	199.45920	195.92680	292.88837	201.18370	194.84615	156.40372	
648	6.470	199.44287	195.94212	292.89911	201.18370	194.84615	156.40372	
649	6.480	199.41008	195.94472	292.88705	201.18370	194.84615	156.40372	
650	6.490	199.41364	195.94626	292.88113	201.18370	194.84615	156.40372	
651	6.500	199.43294	195.94626	292.88007	201.18370	194.84615	156.40372	
652	6.510	199.41878	195.94223	292.87146	201.18370	194.84615	156.40372	
